# xmcd CD database file
# Copyright (C) 1993-1996 Ti Kan
#
# Track frame offsets:
# 150
# 13352
# 26875
# 37682
# 49025
# 61710
# 73232
# 84942
# 94460
# 105297
#
# Disc length: 1570 seconds
# Revision: 0
# Processed by: cddbd v1.4b41PL1 Copyright (c) Steve Scherf et al.
# Submitted via: CDSpectrumPro v3.2.327
#
DISCID=7906200a
DTITLE=Charley Pride - Greatest Hits Live
DYEAR=1900
DGENRE=
TTITLE0=Kawliga
TTITLE1=So Afraid Of Losing You
TTITLE2=Oklahoma Morning
TTITLE3=It's Going To Take A Little Bit Longer
TTITLE4=Crystal Chandelier
TTITLE5=Happiness Of Having You
TTITLE6=My Eyes Can Only See As Far As You
TTITLE7=Kiss An Angel Good Morning
TTITLE8=Mississippi Cotton Pickin' Delta Town
TTITLE9=Help Me Make It Through The Night
EXTD=
EXTT0=
EXTT1=
EXTT2=
EXTT3=
EXTT4=
EXTT5=
EXTT6=
EXTT7=
EXTT8=
EXTT9=
PLAYORDER=
